<?xml version="1.0" encoding="UTF-8" standalone="no"?>
<svg
   xmlns:dc="http://purl.org/dc/elements/1.1/"
   xmlns:cc="http://creativecommons.org/ns#"
   xmlns:rdf="http://www.w3.org/1999/02/22-rdf-syntax-ns#"
   xmlns:svg="http://www.w3.org/2000/svg"
   xmlns="http://www.w3.org/2000/svg"
   xmlns:sodipodi="http://sodipodi.sourceforge.net/DTD/sodipodi-0.dtd"
   xmlns:inkscape="http://www.inkscape.org/namespaces/inkscape"
   enable-background="new 0 0 24 24"
   height="24"
   viewBox="0 0 24 24"
   width="24"
   version="1.1"
   id="svg50"
   sodipodi:docname="wgs84Projection.svg"
   inkscape:export-filename="C:\Users\cjhamil\Documents\GitHub\qgis-latlontools-plugin\images\wgs84Projection.png"
   inkscape:export-xdpi="96"
   inkscape:export-ydpi="96"
   inkscape:version="1.0.2 (e86c870879, 2021-01-15, custom)">
  <metadata
     id="metadata56">
    <rdf:RDF>
      <cc:Work
         rdf:about="">
        <dc:format>image/svg+xml</dc:format>
        <dc:type
           rdf:resource="http://purl.org/dc/dcmitype/StillImage" />
        <dc:title></dc:title>
      </cc:Work>
    </rdf:RDF>
  </metadata>
  <defs
     id="defs54" />
  <sodipodi:namedview
     pagecolor="#ffffff"
     bordercolor="#666666"
     borderopacity="1"
     objecttolerance="10"
     gridtolerance="10"
     guidetolerance="10"
     inkscape:pageopacity="0"
     inkscape:pageshadow="2"
     inkscape:window-width="1623"
     inkscape:window-height="956"
     id="namedview52"
     showgrid="false"
     inkscape:zoom="27.812867"
     inkscape:cx="16.566989"
     inkscape:cy="13.285218"
     inkscape:window-x="171"
     inkscape:window-y="34"
     inkscape:window-maximized="0"
     inkscape:current-layer="svg50"
     inkscape:document-rotation="0" />
  <linearGradient
     id="a"
     gradientUnits="userSpaceOnUse"
     x1="3.0864"
     x2="20.9115"
     y1="14.0254"
     y2="10.8823"
     gradientTransform="translate(0.0359546,-0.46740957)">
    <stop
       offset="0"
       stop-color="#c8e6fa"
       id="stop2" />
    <stop
       offset=".2857"
       stop-color="#b7ddf6"
       id="stop4" />
    <stop
       offset=".8515"
       stop-color="#8ac7eb"
       id="stop6" />
    <stop
       offset="1"
       stop-color="#7dc1e8"
       id="stop8" />
  </linearGradient>
  <linearGradient
     id="b"
     gradientUnits="userSpaceOnUse"
     x1=".9834"
     x2="23.6108"
     y1="6.6646"
     y2="8.6442">
    <stop
       offset="0"
       stop-color="#f5f5f5"
       id="stop11" />
    <stop
       offset=".2503"
       stop-color="#e4e4e4"
       id="stop13" />
    <stop
       offset=".7217"
       stop-color="#c9c9c9"
       id="stop15" />
    <stop
       offset="1"
       stop-color="#bfbfbf"
       id="stop17" />
  </linearGradient>
  <path
     d="m 21.084957,11.98959 c 0,4.987 -4.054,9.039 -9.049,9.039 -4.9980023,0 -9.0490023,-4.052 -9.0490023,-9.039 0,-4.9949996 4.052,-9.0459996 9.0490023,-9.0459996 4.995,0 9.049,4.051 9.049,9.0459996 z"
     id="path20"
     style="fill:url(#a);stroke:#4774b4;stroke-width:0.75;stroke-linecap:round;stroke-linejoin:round;opacity:0.807"
     inkscape:connector-curvature="0" />
  <path
     d="m 12.035957,3.4195904 c 4.762,4.763 4.762,12.3699996 0,17.1349996"
     id="path22"
     inkscape:connector-curvature="0"
     style="fill:none;stroke:#4774b4;stroke-width:0.75;stroke-linecap:round;stroke-linejoin:round;opacity:0.807" />
  <path
     d="m 12.035957,3.4195904 c -4.7630023,4.763 -4.7630023,12.3699996 0,17.1349996"
     id="path24"
     inkscape:connector-curvature="0"
     style="fill:none;stroke:#4774b4;stroke-width:0.75;stroke-linecap:round;stroke-linejoin:round;opacity:0.807" />
  <path
     d="m 3.4629547,11.98959 c 1.905,0 15.2400023,0 17.1460023,0"
     id="path26"
     inkscape:connector-curvature="0"
     style="fill:none;stroke:#4774b4;stroke-width:0.75;stroke-linecap:round;stroke-linejoin:round;opacity:0.807" />
  <path
     d="m 18.702957,6.2775904 c -2.675,1.918 -10.309002,2.067 -13.3350023,0"
     id="path28"
     inkscape:connector-curvature="0"
     style="fill:none;stroke:#4774b4;stroke-width:0.75;stroke-linecap:round;stroke-linejoin:round;opacity:0.807" />
  <path
     d="m 18.702957,17.69559 c -3.447,-1.867 -9.708002,-1.995 -13.3350023,0"
     id="path30"
     inkscape:connector-curvature="0"
     style="fill:none;stroke:#4774b4;stroke-width:0.75;stroke-linecap:round;stroke-linejoin:round;opacity:0.807" />
  <text
     xml:space="preserve"
     style="font-style:normal;font-weight:normal;font-size:12px;line-height:125%;font-family:sans-serif;letter-spacing:0px;word-spacing:0px;fill:#000000;fill-opacity:1;stroke:none;stroke-width:1px;stroke-linecap:butt;stroke-linejoin:miter;stroke-opacity:1"
     x="2.8763666"
     y="6.454164"
     id="text889" />
  <g
     aria-label="84"
     id="text893"
     style="font-style:normal;font-weight:normal;font-size:8px;line-height:125%;font-family:sans-serif;letter-spacing:0px;word-spacing:0px;fill:#000000;fill-opacity:1;stroke:none;stroke-width:1px;stroke-linecap:butt;stroke-linejoin:miter;stroke-opacity:1">
    <path
       d="m 7.1884258,14.520001 q 0,-0.455729 0.2460937,-0.856771 0.2506509,-0.405598 0.7291664,-0.647135 0.4830727,-0.241536 1.1256506,-0.241536 0.5423176,0 0.9524735,0.141276 0.410156,0.141276 0.683594,0.391927 0.273437,0.246093 0.405599,0.560546 0.132161,0.309896 0.132161,0.660807 0,0.446615 -0.232422,0.797526 -0.227864,0.350912 -0.683593,0.574219 0.387369,0.15039 0.642578,0.396484 0.255208,0.241536 0.382812,0.565104 0.132161,0.31901 0.132161,0.710937 0,0.574219 -0.277994,1.04362 -0.277995,0.464843 -0.815755,0.729166 -0.537761,0.264323 -1.266927,0.264323 -0.7565101,0 -1.2942704,-0.264323 Q 7.5119934,19.081848 7.238556,18.621562 6.9651186,18.156718 6.9651186,17.5825 q 0,-1.225911 1.1575517,-1.68164 -0.9342445,-0.4375 -0.9342445,-1.380859 z m 3.2675772,3.016926 q 0,-0.355469 -0.145833,-0.619792 -0.145834,-0.264322 -0.4101566,-0.405598 -0.2643228,-0.141276 -0.5924477,-0.141276 -0.4648436,0 -0.7792966,0.309895 -0.314453,0.309896 -0.314453,0.865886 0,0.355468 0.1458332,0.628906 0.1503906,0.26888 0.4055989,0.41927 0.2552082,0.145834 0.5696612,0.145834 0.3190103,0 0.5742186,-0.150391 0.255208,-0.150391 0.401042,-0.423828 0.145833,-0.273437 0.145833,-0.628906 z M 9.3166803,13.645001 q -0.4283853,0 -0.6927081,0.26888 -0.2597656,0.264323 -0.2597656,0.683594 0,0.387369 0.2688802,0.647135 0.2688801,0.255208 0.6927081,0.255208 0.2141926,0 0.3873696,-0.06836 0.1777343,-0.06836 0.3007815,-0.186849 0.127604,-0.123047 0.195963,-0.287109 0.06836,-0.16862 0.06836,-0.369141 0,-0.26888 -0.123046,-0.483073 -0.11849,-0.214192 -0.3372398,-0.337239 -0.2187499,-0.123047 -0.5013019,-0.123047 z"
       style="font-style:normal;font-variant:normal;font-weight:normal;font-stretch:normal;font-size:9.33333px;font-family:'Arial Rounded MT Bold';-inkscape-font-specification:'Arial Rounded MT Bold, ';text-align:center;text-anchor:middle"
       id="path858" />
    <path
       d="m 15.377876,18.9269 v -0.847656 h -2.287759 q -0.432943,0 -0.651693,-0.195963 -0.214192,-0.195963 -0.214192,-0.533203 0,-0.08659 0.0319,-0.173177 0.0319,-0.09115 0.0957,-0.186849 0.0638,-0.10026 0.132161,-0.191406 0.06836,-0.09115 0.16862,-0.223307 l 2.415364,-3.231119 q 0.236979,-0.31901 0.387369,-0.460286 0.154948,-0.145834 0.369141,-0.145834 0.692708,0 0.692708,0.792969 v 3.527342 h 0.195963 q 0.350912,0 0.560547,0.0957 0.214193,0.0957 0.214193,0.41927 0,0.264323 -0.173177,0.38737 -0.173177,0.118489 -0.519532,0.118489 H 16.517199 V 18.9269 q 0,0.350912 -0.154948,0.524089 -0.154948,0.16862 -0.414713,0.16862 -0.255209,0 -0.414714,-0.173178 -0.154948,-0.177734 -0.154948,-0.519531 z m -1.959634,-1.868489 h 1.959634 v -2.647785 z"
       style="font-style:normal;font-variant:normal;font-weight:normal;font-stretch:normal;font-size:9.33333px;font-family:'Arial Rounded MT Bold';-inkscape-font-specification:'Arial Rounded MT Bold, ';text-align:center;text-anchor:middle"
       id="path860" />
  </g>
  <g
     aria-label="WGS"
     id="text893-2"
     style="font-style:normal;font-weight:normal;font-size:8px;line-height:125%;font-family:sans-serif;letter-spacing:0px;word-spacing:0px;fill:#000000;fill-opacity:1;stroke:none;stroke-width:1px;stroke-linecap:butt;stroke-linejoin:miter;stroke-opacity:1">
    <path
       d="M 6.5056919,9.8507379 5.4256141,5.8448799 4.3318645,9.8507379 q -0.1276041,0.4557291 -0.2050781,0.6562501 -0.072917,0.195963 -0.2597655,0.355468 -0.1868489,0.154948 -0.4967446,0.154948 -0.250651,0 -0.4147134,-0.0957 Q 2.7960577,10.830555 2.6957974,10.661936 2.595537,10.488759 2.5317349,10.256337 2.4679328,10.019358 2.4178027,9.8188369 L 1.3058239,5.3207916 q -0.1002604,-0.391927 -0.1002604,-0.597005 0,-0.2597656 0.1822916,-0.4374999 0.1822916,-0.1777343 0.4511717,-0.1777343 0.3691405,0 0.4967446,0.2369791 0.1276042,0.2369791 0.2233073,0.6881508 L 3.4340784,8.9347226 4.4138957,5.2843332 Q 4.5232707,4.8650625 4.6098592,4.6463126 4.6964477,4.4275627 4.8924112,4.2680575 5.0883747,4.1085524 5.4256141,4.1085524 q 0.3417968,0 0.5286457,0.1686197 0.1914062,0.1640625 0.2643228,0.3600259 0.072917,0.1959635 0.1959635,0.6471352 L 7.403478,8.9347226 8.2784777,5.0336823 q 0.063802,-0.3053385 0.1184896,-0.4785155 0.059245,-0.173177 0.1959635,-0.3098957 0.141276,-0.1367187 0.4055988,-0.1367187 0.2643228,0 0.4466144,0.1777343 0.1868489,0.173177 0.1868489,0.4374999 0,0.1868488 -0.1002604,0.597005 L 8.4197537,9.8188369 q -0.1139322,0.4557291 -0.1914061,0.6699221 -0.072917,0.209635 -0.2552083,0.36914 -0.1777343,0.159505 -0.5058592,0.159505 -0.3098957,0 -0.4967446,-0.154948 Q 6.7836866,10.707508 6.7107699,10.516102 6.6378533,10.320139 6.5056919,9.8507379 Z"
       style="font-style:normal;font-variant:normal;font-weight:normal;font-stretch:normal;font-size:9.33333px;font-family:'Arial Rounded MT Bold';-inkscape-font-specification:'Arial Rounded MT Bold, ';text-align:center;text-anchor:middle"
       id="path851" />
    <path
       d="m 16.631991,8.187327 v 1.2805986 q 0,0.2552082 -0.05013,0.4101561 -0.05013,0.1503903 -0.186849,0.2734373 -0.132162,0.123047 -0.341797,0.236979 -0.606119,0.328125 -1.166666,0.478516 -0.560547,0.15039 -1.221354,0.15039 -0.770182,0 -1.403645,-0.236979 -0.633464,-0.236979 -1.080078,-0.688151 -0.446614,-0.4511714 -0.688151,-1.0937493 -0.236979,-0.6425779 -0.236979,-1.4355464 0,-0.7792966 0.232422,-1.4264318 0.232422,-0.6471352 0.683593,-1.0983069 0.451172,-0.4511718 1.098307,-0.6881508 0.647136,-0.2415364 1.467448,-0.2415364 0.674479,0 1.19401,0.1822916 0.519531,0.1777343 0.843098,0.4511717 0.323568,0.2734374 0.48763,0.5787759 0.164063,0.3053384 0.164063,0.5423175 0,0.2552082 -0.191406,0.4374998 -0.186849,0.1777343 -0.451172,0.1777343 -0.145833,0 -0.282552,-0.068359 Q 15.369622,6.3416245 15.278476,6.2185777 15.027825,5.8266508 14.854648,5.62613 14.681471,5.4256092 14.385247,5.2888905 14.09358,5.1521718 13.637851,5.1521718 q -0.469401,0 -0.838541,0.1640625 -0.369141,0.1595051 -0.633463,0.4694008 -0.259766,0.3053385 -0.401042,0.7519529 -0.136719,0.4466144 -0.136719,0.988932 0,1.1757808 0.537761,1.8092441 0.542317,0.6334634 1.508463,0.6334634 0.469401,0 0.879557,-0.1230469 0.414713,-0.1230468 0.838541,-0.3509113 v -1.084635 h -1.048177 q -0.378255,0 -0.574218,-0.1139323 -0.191406,-0.1139323 -0.191406,-0.3873697 0,-0.2233072 0.159505,-0.3691405 0.164062,-0.1458332 0.442057,-0.1458332 h 1.535807 q 0.282552,0 0.478515,0.05013 0.195964,0.05013 0.314453,0.2233073 0.123047,0.173177 0.123047,0.519531 z"
       style="font-style:normal;font-variant:normal;font-weight:normal;font-stretch:normal;font-size:9.33333px;font-family:'Arial Rounded MT Bold';-inkscape-font-specification:'Arial Rounded MT Bold, ';text-align:center;text-anchor:middle"
       id="path853" />
    <path
       d="m 22.998525,8.8982643 q 0,0.6061196 -0.314453,1.0891923 -0.309896,0.4830724 -0.911458,0.7565104 -0.601563,0.273437 -1.426432,0.273437 -0.988932,0 -1.63151,-0.373698 -0.455729,-0.26888 -0.742838,-0.7154941 -0.282552,-0.4511718 -0.282552,-0.8749997 0,-0.2460937 0.168619,-0.4192707 0.173177,-0.1777343 0.4375,-0.1777343 0.214193,0 0.360026,0.1367187 0.150391,0.1367187 0.255208,0.4055988 0.127604,0.3190103 0.273438,0.5332029 0.15039,0.2141927 0.41927,0.3554687 0.268881,0.1367187 0.70638,0.1367187 0.601563,0 0.975261,-0.2779947 0.378255,-0.282552 0.378255,-0.7018227 0,-0.3326822 -0.205078,-0.5377603 Q 21.25764,8.296702 20.934072,8.187327 20.615062,8.0779521 20.077302,7.9549052 19.35725,7.7862855 18.86962,7.5629783 18.386547,7.3351138 18.099438,6.9477441 17.816886,6.5558172 17.816886,5.9770413 q 0,-0.5514321 0.300781,-0.9798173 0.300781,-0.4283853 0.870442,-0.6562498 0.569662,-0.2324218 1.339844,-0.2324218 0.615234,0 1.061848,0.1549478 0.451172,0.1503906 0.747396,0.4055989 0.296224,0.2506509 0.432942,0.5286456 0.136719,0.2779947 0.136719,0.5423175 0,0.2415364 -0.173177,0.4374999 -0.16862,0.1914062 -0.423828,0.1914062 -0.232422,0 -0.355469,-0.1139323 -0.118489,-0.1184895 -0.259765,-0.3828123 -0.182292,-0.3782551 -0.4375,-0.5878905 -0.255208,-0.2141926 -0.820312,-0.2141926 -0.524089,0 -0.847656,0.2324218 -0.31901,0.2278645 -0.31901,0.5514321 0,0.2005208 0.109374,0.346354 0.109375,0.1458333 0.300782,0.250651 0.191406,0.1048177 0.387369,0.1640624 0.195964,0.059245 0.647135,0.1731771 0.565104,0.1321614 1.020833,0.2916665 0.460287,0.1595052 0.779297,0.3873697 0.323568,0.2278645 0.501302,0.5787758 0.182292,0.3463541 0.182292,0.8522133 z"
       style="font-style:normal;font-variant:normal;font-weight:normal;font-stretch:normal;font-size:9.33333px;font-family:'Arial Rounded MT Bold';-inkscape-font-specification:'Arial Rounded MT Bold, ';text-align:center;text-anchor:middle"
       id="path855" />
  </g>
</svg>
