<svg enable-background="new 0 0 24 24" height="24" viewBox="0 0 24 24" width="24" xmlns="http://www.w3.org/2000/svg" xmlns:xlink="http://www.w3.org/1999/xlink"><linearGradient id="a" gradientUnits="userSpaceOnUse" x1="3.0864" x2="20.9115" y1="14.0254" y2="10.8823"><stop offset="0" stop-color="#c8e6fa"/><stop offset=".2857" stop-color="#b7ddf6"/><stop offset=".8515" stop-color="#8ac7eb"/><stop offset="1" stop-color="#7dc1e8"/></linearGradient><linearGradient id="b" gradientUnits="userSpaceOnUse" x1=".9834" x2="23.6108" y1="6.6646" y2="8.6442"><stop offset="0" stop-color="#f5f5f5"/><stop offset=".2503" stop-color="#e4e4e4"/><stop offset=".7217" stop-color="#c9c9c9"/><stop offset="1" stop-color="#bfbfbf"/></linearGradient><g stroke-linecap="round"><path d="m 21.049 12.457 c 0 4.987 -4.054 9.039 -9.049 9.039 -4.998 0 -9.049 -4.052 -9.049 -9.039 0 -4.995 4.052 -9.046 9.049 -9.046 4.995 0 9.049 4.051 9.049 9.046 z" fill="url(#a)" stroke="#4774b4" stroke-linejoin="round" stroke-width=".75"/><path d="m 12 3.887 c 4.762 4.763 4.762 12.37 0 17.135" fill="none" stroke="#4774b4" stroke-linejoin="round" stroke-width=".75"/><path d="m 12 3.887 c -4.763 4.763 -4.763 12.37 0 17.135" fill="none" stroke="#4774b4" stroke-linejoin="round" stroke-width=".75"/><path d="m 3.427 12.457 h 17.146" fill="none" stroke="#4774b4" stroke-linejoin="round" stroke-width=".75"/><path d="m 18.667 6.745 c -2.675 1.918 -10.309 2.067 -13.335 0" fill="none" stroke="#4774b4" stroke-linejoin="round" stroke-width=".75"/><path d="m 18.667 18.163 c -3.447 -1.867 -9.708 -1.995 -13.335 0" fill="none" stroke="#4774b4" stroke-linejoin="round" stroke-width=".75"/><path d="m 23.4 11.046 s -4.453 2.013 -11.4 2.013 c -6.948 0 -11.4 -2.013 -11.4 -2.013 l 8.479 -8.729 s 1.75 .425 2.921 .425 2.922 -.425 2.922 -.425 z" fill="url(#b)" fill-opacity=".8" stroke="#404040" stroke-width=".5"/><path d="m 12 13.059 v -5.747 -4.571" fill="none" stroke="#404040" stroke-linejoin="round" stroke-width=".5"/><path d="m 20.41 8.064 s -3.283 1.375 -8.41 1.375 c -5.126 0 -8.41 -1.375 -8.41 -1.375" fill="none" stroke="#404040" stroke-linejoin="round" stroke-width=".5"/><path d="m 17.561 4.997 s -2.17 .802 -5.561 .802 c -3.39 0 -5.562 -.802 -5.562 -.802" fill="none" stroke="#404040" stroke-linejoin="round" stroke-width=".5"/><path d="m 13.266 2.632 4.81 9.903" fill="none" stroke="#404040" stroke-linejoin="round" stroke-width=".5"/><path d="m 10.736 2.632 -4.813 9.903" fill="none" stroke="#404040" stroke-linejoin="round" stroke-width=".5"/></g><path d="m 15.012 13 h 6.977 c 1.111 0 2.011 .9 2.011 2.012 v 6.977 c 0 1.111 -.9 2.011 -2.012 2.011 h -6.977 c -1.111 0 -2.011 -.9 -2.011 -2.012 v -6.977 c 0 -1.111 .9 -2.011 2.012 -2.011 z" fill="#c4a000"/><path d="m 18 14 v 2.062 c -.537 .111 -1.024 .383 -1.375 .781 l -1.781 -1.031 -.5 .875 1.781 1.031 c -.082 .249 -.125 .507 -.125 .782 s .043 .533 .125 .781 l -1.781 1.031 .5 .875 1.781 -1.031 c .353 .4 .832 .67 1.375 .781 v 2.063 h 1 v -2.062 c .537 -.111 1.024 -.383 1.375 -.781 l 1.781 1.031 .5 -.875 -1.781 -1.031 c .082 -.249 .125 -.507 .125 -.782 s -.043 -.533 -.125 -.781 l 1.781 -1.031 -.5 -.875 -1.781 1.031 c -.353 -.4 -.832 -.67 -1.375 -.781 v -2.063 z m .5 3.5 c .552 0 1 .448 1 1 s -.448 1 -1 1 -1 -.448 -1 -1 .448 -1 1 -1 z" fill="#fcffff"/><path d="m 14 19 9 -.01 s 0 0 0 -2 c 0 -2.99 -1 -2.99 -4.5 -2.99 s -4.5 0 -4.5 3 z" fill="#fcffff" opacity=".3"/></svg>