<svg height="24" width="24" xmlns="http://www.w3.org/2000/svg"><g fill="#2174ac"><path d="m10.544364 2.8050289-1.9413391 7.6160241h-1.8346724l-1.03467-4.0000127q-.0320001-.1173337-.0853336-.3520011-.0426668-.2346674-.106667-.5120016-.0533335-.2773342-.106667-.5226684-.0426668-.2453341-.0533335-.3946679-.010667.1493338-.064.3946679-.042667.2453342-.096.5226684-.053333.2666675-.106667.5120016-.053333.2346674-.085334.3626678l-1.0240033 3.989346h-1.8346725l-1.94133947-7.6160241h1.58933837l.9706697 4.1600131q.064.2453341.1386671.6186686.074667.3733345.1386671.7466691.064.3733345.096.6293353.032-.2666675.096-.6293353.064-.3733346.1280004-.714669.0746675-.3520011.128001-.5440017l1.1093369-4.2666801h1.5253381l1.1093369 4.2666801q.053333.1920006.1173337.5440017.074667.3413344.1386671.714669.064.3733345.096.6293353.032-.2666675.096-.6293353.064-.3733346.1386671-.7360024.0853342-.3733345.1386677-.6293353l.9706697-4.1600131z"/><path d="m17.627064 10.421053h-1.834673l-1.994673-3.2106769-.682668.4906682v2.7200087h-1.610672v-7.6160241h1.610672v3.488011q.16-.2240007.320001-.4480014.16-.2240007.320001-.4480014l2.058673-2.5920082h1.792005l-2.656008 3.3706773z"/><path d="m21.520405 10.421053h-1.610672v-6.2720199h-2.06934v-1.3440042h5.749352v1.3440042h-2.06934z"/><path d="m1.5941152 21.772153q-.2513334 0-.4420002-.026-.19066671-.026-.32933343-.06933v-1.092001q.13866672.03467.29466673.06067.1473334.026.3206668.026.2253334 0 .4073335-.08667.1906668-.08667.2946668-.329333.104-.234.104-.693334v-5.798005h1.3086672v5.789335q0 .797334-.2513334 1.282668-.2426668.494-.684667.710667-.4420001.225333-1.022667.225333z"/><path d="m8.7614458 18.236152q0 .823333-.5980002 1.317333-.5893336.485334-1.681334.485334-.9793337 0-1.7506673-.372667v-1.222q.4420002.190666.9100003.355333.4766669.156.9446671.156.4853335 0 .6846669-.182.2080001-.190667.2080001-.476667 0-.234-.1646668-.398667-.156-.164666-.4246668-.303333-.2686668-.147333-.6153336-.312-.2166667-.104-.4680001-.242667-.2513335-.147333-.4853335-.355333-.2253335-.216667-.3726668-.52-.1473334-.303334-.1473334-.728001 0-.832.5633335-1.291334.5633336-.468 1.5340006-.468.4853335 0 .918667.112667.4333335.112667.918667.320667l-.4246668 1.022667q-.4246669-.173334-.762667-.268667-.3380001-.09533-.6933336-.09533-.3726668 0-.5720002.173333-.1993334.173333-.1993334.450667 0 .329333.2946668.52.2946668.190667.8753336.468.4766669.225334.8060003.468.3380002.242667.5200002.572001.1820001.329333.1820001.814667z"/><path d="m15.50412 16.849484q0 .962001-.320667 1.681334-.312.710667-.970667 1.109334-.65.398667-1.655334.398667-1.005334 0-1.664-.398667-.650001-.398667-.9706675-1.118-.3120001-.719334-.3120001-1.681334 0-.962001.3120001-1.672668.3206665-.710666.9706675-1.100667.658666-.398666 1.672667-.398666 1.005334 0 1.655334.398666.65.390001.962 1.109334.320667.710667.320667 1.672667zm-4.515335 0q0 .970667.372667 1.534001.372667.554667 1.196.554667.840667 0 1.204667-.554667.364-.563334.364-1.534001 0-.970667-.364-1.525333-.364-.563334-1.196-.563334-.832 0-1.204667.563334-.372667.554666-.372667 1.525333z"/><path d="m22.272785 19.952152h-1.664001l-2.695334-4.680001h-.03467q.01733.442.03467.884.026.442.04333.884v2.912001h-1.17v-6.188002h1.655334l2.686667 4.636668h.026q-.01733-.424666-.03467-.849333-.01733-.424667-.026-.858001v-2.929334h1.178667z"/></g></svg>