<svg height="24" width="24" xmlns="http://www.w3.org/2000/svg"><circle cx="12.004747" cy="12.004747" r="11.007354" style="fill:#fff;stroke:#497db4;stroke-width:1.74097;stroke-linecap:round;stroke-linejoin:round;stroke-dashoffset:.680315"/><circle cx="12.004747" cy="12.004747" fill="#497db4" r="8.3049202"/><path d="m 15.066087 18.864759 h -6.0480114 v -.298667 l .4480008 -.01867 q .5413346 -.056 .6533346 -.261334 .112 -.205334 .112 -.896002 l .01867 -.858668 v -4.461341 l -.01867 -.765335 q -.03733 -.448001 -.112 -.672001 -.07467 -.224001 -.6720013 -.280001 l -.5040009 -.03733 v -.298668 h 4.8906752 v 6.514679 l .01867 .858668 q 0 .672001 .112 .896002 .112 .205333 .653335 .261334 l .448001 .01867 z m -4.853343 -11.9653545 q 0 -.7280013 .522668 -1.2320022 .541334 -.5226676 1.288002 -.5226676 .765335 0 1.288003 .5040009 .541334 .4853342 .541334 1.2506689 0 .746668 -.541334 1.2693356 -.522668 .5040009 -1.288003 .5040009 -.746668 0 -1.288002 -.5040009 -.522668 -.5226676 -.522668 -1.2693356 z" fill="#fff"/></svg>