<svg height="24" viewBox="0 0 24 24" width="24" xmlns="http://www.w3.org/2000/svg"><g transform="translate(0 -8)"><g fill="#8cbe8c" stroke="#4c4d4c"><path d="m 3.8942791 16.345933 1.8150988 -2.650708 -1.5273393 -2.357415 q -.2158196 -.343098 -.3264964 -.586587 -.1051429 -.249023 -.1051429 -.47591 0 -.232421 .204752 -.4150379 .2102858 -.1881505 .5091131 -.1881505 .3430979 0 .5312484 .204752 .1936843 .1992184 .5312484 .7470684 l 1.2174443 1.970046 1.3004519 -1.970046 q .1604813 -.249023 .271158 -.426106 .1162106 -.177083 .2213535 -.2932932 .1051429 -.1162106 .2324212 -.171549 .1328121 -.060872 .3043611 -.060872 .3098949 0 .5035792 .1881505 .1992182 .1826167 .1992182 .4371727 0 .370767 -.4261055 1.007159 l -1.5992791 2.390618 1.7210235 2.650708 q .2324212 .348632 .3375641 .581053 .1051429 .226887 .1051429 .431639 0 .193685 -.094075 .354166 -.094075 .160481 -.2656242 .254556 -.171549 .09408 -.3873687 .09408 -.2324212 0 -.3929024 -.09961 -.1604815 -.094079 -.2600906 -.237959 -.0996091 -.143879 -.3707671 -.558917 l -1.4277302 -2.246738 -1.5162715 2.313144 q -.1770828 .276692 -.2545565 .387369 -.07194 .110676 -.1770829 .215819 -.1051429 .105143 -.2490227 .166015 -.1438797 .06087 -.3375641 .06087 -.2988272 0 -.4980453 -.182617 -.1936844 -.182617 -.1936844 -.531248 0 -.409504 .4039702 -1.001625 z" stroke-opacity=".933333" stroke-width=".377953"/><path d="m 11.957081 18.07249 q -.365233 0 -.630858 -.221353 -.265624 -.226888 -.265624 -.630858 0 -.348632 .26009 -.586587 .260091 -.237955 .614256 -.237955 .265625 0 .481444 .14388 .21582 .14388 .337564 .426106 .121745 .276692 .121745 .686196 0 .54785 -.232421 1.02376 -.232422 .481443 -.569986 .758135 -.33203 .282226 -.603188 .282226 -.171549 0 -.282226 -.116211 -.105143 -.110676 -.105143 -.26009 0 -.226887 .226888 -.365233 .647459 -.3597 .647459 -.902016 z" stroke-opacity=".933333" stroke-width=".377953"/><path d="m 16.395219 17.059798 v -2.573235 l -1.981114 -3.07128 q -.26009 -.415037 -.370767 -.647459 -.105143 -.232421 -.105143 -.40397 0 -.282225 .21582 -.4869774 .221353 -.204752 .542316 -.204752 .337564 0 .509113 .1936843 .177083 .1881501 .525714 .7581361 l 1.516272 2.462557 1.532873 -2.462557 q .138346 -.226888 .232421 -.381835 .09408 -.154948 .204752 -.2877597 .116211 -.1383459 .254557 -.2102858 .138346 -.07194 .337564 -.07194 .309895 0 .514647 .204752 .210285 .1992185 .210285 .4648425 0 .21582 -.105142 .431639 -.105143 .21582 -.3597 .597655 l -2.030918 3.11555 v 2.573235 q 0 .503579 -.232422 .752602 -.232421 .249023 -.59212 .249023 -.365233 0 -.592121 -.243489 -.226887 -.249023 -.226887 -.758136 z" stroke-opacity=".933333" stroke-width=".377953"/></g><g transform="translate(33 8)"><rect fill="#c4a000" height="11" rx="2.0114901" width="11" x="-20" y="13"/><g fill="#fcffff"><path d="m -15 14 v 2.0625 c -.537663 .111041 -1.024662 .383291 -1.375 .78125 l -1.78125 -1.03125 -.5 .875 1.78125 1.03125 c -.082063 .247432 -.125 .506395 -.125 .78125 s .04294 .533818 .125 .78125 l -1.78125 1.03125 .5 .875 1.78125 -1.03125 c .352503 .40042 .832682 .670182 1.375 .78125 v 2.0625 h 1 v -2.0625 c .537663 -.111041 1.024662 -.383291 1.375 -.78125 l 1.78125 1.03125 .5 -.875 -1.78125 -1.03125 c .082063 -.247432 .125 -.506395 .125 -.78125 s -.04294 -.533818 -.125 -.78125 l 1.78125 -1.03125 -.5 -.875 -1.78125 1.03125 c -.352503 -.40042 -.832682 -.670182 -1.375 -.78125 v -2.0625 z m .5 3.5 c .552 0 1 .448 1 1 s -.448 1 -1 1 -1 -.448 -1 -1 .448 -1 1 -1 z"/><path d="m -19 19 9 -.0096 s 0 0 0 -2 c 0 -2.9904 -1 -2.9904 -4.5 -2.9904 s -4.5 0 -4.5 3 z" fill-rule="evenodd" opacity=".3"/></g></g><rect fill="#8cbe8c" height="5" rx="3.125" stroke="#4c4d4c" stroke-linecap="round" stroke-opacity=".93333333" stroke-width=".99999994" width="5" x="4.5" y="23.115383"/></g></svg>