<svg height="24" width="24" xmlns="http://www.w3.org/2000/svg"><g transform="translate(0 -8)"><path d="m 17.96122 7 c 0 3.354712 -2.668929 6.074244 -5.96122 6.074244 s -5.9612203 -2.719532 -5.9612203 -6.074244 c 0 -3.3547121 2.6689293 -6.07424355 5.9612203 -6.07424355 s 5.96122 2.71953145 5.96122 6.07424355 z" style="opacity:.8;fill:#e6e6e6;stroke:#505050;stroke-width:.752183;stroke-linecap:round;stroke-linejoin:round;stroke-dashoffset:7" transform="matrix(1.3420071 0 0 1.3170365 -1.604085 8.279109)"/><path d="m 10 13 c 2 -3 4.442248 -3.398055 6 -2 s -2 1 -4 3 0 6 -2 6 c -1.9999999 0 -1.9999999 -4 0 -7 z" fill="#fcffff" fill-rule="evenodd" opacity=".7"/><g stroke-linejoin="round"><path d="m 2.0000001 29 4 -4" opacity=".5" stroke="#fcffff" stroke-linecap="round"/><g transform="translate(8.736033 4.906424)"><path d="m -1.2360334 17.593576 c 0 2 2.00000001 2 2.00000001 2 s -7.00000001 7 -7.00000001 7 l -2 -2 z" fill="#ffcc30" fill-rule="evenodd" stroke="#505050"/><path d="m -2.7360334 19.093576 2.00000001 -2 1.99999989 2 -1.99999989 2 z" fill-rule="evenodd" stroke="#505050"/><path d="m -6.7360334 24.093576 4 -4" opacity=".5" stroke="#fcffff" stroke-linecap="round"/></g></g></g><g fill="#f00" fill-rule="evenodd" stroke-width="1.29411"><circle cx="14.5" cy="9.4983644" r="1.786375"/><circle cx="13.560209" cy="20.949306" r="1.786375"/><circle cx="20.908709" cy="19.650126" r="1.786375"/><circle cx="3.7351477" cy="4.1817422" r="1.786375"/></g></svg>