<svg enable-background="new 0 0 24 24" height="24" viewBox="0 0 24 24" width="24" xmlns="http://www.w3.org/2000/svg" xmlns:xlink="http://www.w3.org/1999/xlink"><linearGradient id="a" gradientUnits="userSpaceOnUse" x1="3.02714074" x2="20.85224074" y1="13.5216963" y2="10.3785963"><stop offset="0" stop-color="#c8e6fa"/><stop offset=".2857" stop-color="#b7ddf6"/><stop offset=".8515" stop-color="#8ac7eb"/><stop offset="1" stop-color="#7dc1e8"/></linearGradient><g stroke-linejoin="round"><g stroke="#4774b4" stroke-linecap="round" stroke-width=".75"><path d="m 20.989741 11.953296 c 0 4.987 -4.054 9.039 -9.049 9.039 -4.9980003 0 -9.0490003 -4.052 -9.0490003 -9.039 0 -4.9949997 4.052 -9.0459997 9.0490003 -9.0459997 4.995 0 9.049 4.051 9.049 9.0459997 z" fill="url(#a)"/><path d="m 11.940741 3.3832963 c 4.762 4.763 4.762 12.3699997 0 17.1349997" fill="none"/><path d="m 11.940741 3.3832963 c -4.7630003 4.763 -4.7630003 12.3699997 0 17.1349997" fill="none"/><path d="m 3.3677407 11.953296 h 17.1460003" fill="none"/><path d="m 18.607741 6.2412963 c -2.675 1.918 -10.3090003 2.067 -13.3350003 0" fill="none"/><path d="m 18.607741 17.659296 c -3.447 -1.867 -9.7080003 -1.995 -13.3350003 0" fill="none"/></g><g stroke="#000" stroke-width=".377953"><path d="m .87338234 8.3696657 v -3.6718866 q 0 -.4687515 .20833396 -.7031273 .2135424 -.2343757 .5572935 -.2343757 .3593761 0 .5677101 .2343757 .2135423 .2343758 .2135423 .7031273 v 3.7552202 q 0 .640627 .1406255 1.07292 .1458338 .4270847 .5104183 .6666687 .3645844 .234376 1.0208365 .234376 .9062529 0 1.2812541 -.4791683 .3750011 -.4843766 .3750011 -1.4635463 v -3.7864703 q 0 -.4739599 .208334 -.7031273 .208334 -.2343757 .5572935 -.2343757 .3489594 0 .5625017 .2343757 .2187507 .2291674 .2187507 .7031273 v 3.6718866 q 0 .8958361 -.1770839 1.4947964 -.1718755 .5989599 -.656252 1.0520869 -.416668 .385418 -.9687531 .562501 -.5520851 .177084 -1.2916707 .177084 -.8802112 0 -1.5156298 -.1875 -.6354187 -.192709 -1.0364616 -.588544 -.401043 -.401043 -.5885436 -1.0208363 -.18750056 -.625002 -.18750056 -1.489588 z"/><path d="m 13.925507 5.1665305 h -1.687505 v 5.5468925 q 0 .479168 -.213542 .713544 -.213543 .229167 -.552085 .229167 -.343751 0 -.562502 -.234375 -.213542 -.234376 -.213542 -.708336 v -5.5468925 h -1.6875058 q -.3958346 0 -.5885435 -.1718755 -.192709 -.1770839 -.192709 -.4635431 0 -.296876 .1979173 -.4687515 .2031256 -.1718756 .5833352 -.1718756 h 4.9166818 q .401043 0 .593752 .1770839 .197918 .1770839 .197918 .4635432 0 .2864592 -.197918 .4635431 -.197917 .1718755 -.593752 .1718755 z"/><path d="m 18.211979 10.37488 -1.223962 -4.8645984 v 5.2708504 q 0 .437501 -.197917 .656252 -.192709 .21875 -.515627 .21875 -.312501 0 -.510418 -.213542 -.197917 -.218751 -.197917 -.66146 v -6.0416861 q 0 -.5000016 .260417 -.6718772 .260418 -.1770839 .703128 -.1770839 h .479168 q .432293 0 .625002 .078125 .197917 .078125 .291667 .2812509 .09375 .2031256 .213543 .6614604 l 1.109378 4.1823049 1.109379 -4.1823049 q .119792 -.4583348 .213542 -.6614604 .09375 -.2031257 .286459 -.2812509 .197917 -.078125 .630211 -.078125 h .479168 q .442709 0 .703127 .1770839 .260417 .1718756 .260417 .6718772 v 6.0416861 q 0 .437501 -.197917 .656252 -.192709 .21875 -.520835 .21875 -.307293 0 -.50521 -.21875 -.197917 -.218751 -.197917 -.656252 v -5.2708504 l -1.223962 4.8645984 q -.119792 .47396 -.197918 .697919 -.07292 .218751 -.276042 .401043 -.203126 .182292 -.562502 .182292 -.270834 0 -.458335 -.119792 -.1875 -.114583 -.291667 -.296876 -.104167 -.182292 -.166667 -.401043 -.05729 -.223959 -.119793 -.463543 z"/></g></g></svg>