<svg enable-background="new 0 0 24 24" height="24" viewBox="0 0 24 24" width="24" xmlns="http://www.w3.org/2000/svg" xmlns:xlink="http://www.w3.org/1999/xlink"><linearGradient id="a" gradientUnits="userSpaceOnUse" x1="3.1223546" x2="20.9474546" y1="13.55799043" y2="10.41489043"><stop offset="0" stop-color="#c8e6fa"/><stop offset=".2857" stop-color="#b7ddf6"/><stop offset=".8515" stop-color="#8ac7eb"/><stop offset="1" stop-color="#7dc1e8"/></linearGradient><g stroke="#4774b4" stroke-linecap="round" stroke-linejoin="round" stroke-width=".75"><path d="m 21.084957 11.98959 c 0 4.987 -4.054 9.039 -9.049 9.039 -4.9980023 0 -9.0490023 -4.052 -9.0490023 -9.039 0 -4.9949996 4.052 -9.0459996 9.0490023 -9.0459996 4.995 0 9.049 4.051 9.049 9.0459996 z" fill="url(#a)" opacity=".807"/><path d="m 12.035957 3.4195904 c 4.762 4.763 4.762 12.3699996 0 17.1349996" fill="none" opacity=".807"/><path d="m 12.035957 3.4195904 c -4.7630023 4.763 -4.7630023 12.3699996 0 17.1349996" fill="none" opacity=".807"/><path d="m 3.4629547 11.98959 h 17.1460023" fill="none" opacity=".807"/><path d="m 18.702957 6.2775904 c -2.675 1.918 -10.309002 2.067 -13.3350023 0" fill="none" opacity=".807"/><path d="m 18.702957 17.69559 c -3.447 -1.867 -9.708002 -1.995 -13.3350023 0" fill="none" opacity=".807"/></g><text x="2.8763666" y="6.454164"/><g><path d="m 7.1884258 14.520001 q 0 -.455729 .2460937 -.856771 .2506509 -.405598 .7291664 -.647135 .4830727 -.241536 1.1256506 -.241536 .5423176 0 .9524735 .141276 .410156 .141276 .683594 .391927 .273437 .246093 .405599 .560546 .132161 .309896 .132161 .660807 0 .446615 -.232422 .797526 -.227864 .350912 -.683593 .574219 .387369 .15039 .642578 .396484 .255208 .241536 .382812 .565104 .132161 .31901 .132161 .710937 0 .574219 -.277994 1.04362 -.277995 .464843 -.815755 .729166 -.537761 .264323 -1.266927 .264323 -.7565101 0 -1.2942704 -.264323 -.5377602 -.264323 -.8111976 -.724609 -.2734374 -.464844 -.2734374 -1.039062 0 -1.225911 1.1575517 -1.68164 -.9342445 -.4375 -.9342445 -1.380859 z m 3.2675772 3.016926 q 0 -.355469 -.145833 -.619792 -.145834 -.264322 -.4101566 -.405598 -.2643228 -.141276 -.5924477 -.141276 -.4648436 0 -.7792966 .309895 -.314453 .309896 -.314453 .865886 0 .355468 .1458332 .628906 .1503906 .26888 .4055989 .41927 .2552082 .145834 .5696612 .145834 .3190103 0 .5742186 -.150391 .255208 -.150391 .401042 -.423828 .145833 -.273437 .145833 -.628906 z m -1.1393227 -3.891926 q -.4283853 0 -.6927081 .26888 -.2597656 .264323 -.2597656 .683594 0 .387369 .2688802 .647135 .2688801 .255208 .6927081 .255208 .2141926 0 .3873696 -.06836 .1777343 -.06836 .3007815 -.186849 .127604 -.123047 .195963 -.287109 .06836 -.16862 .06836 -.369141 0 -.26888 -.123046 -.483073 -.11849 -.214192 -.3372398 -.337239 -.2187499 -.123047 -.5013019 -.123047 z"/><path d="m 15.377876 18.9269 v -.847656 h -2.287759 q -.432943 0 -.651693 -.195963 -.214192 -.195963 -.214192 -.533203 0 -.08659 .0319 -.173177 .0319 -.09115 .0957 -.186849 .0638 -.10026 .132161 -.191406 .06836 -.09115 .16862 -.223307 l 2.415364 -3.231119 q .236979 -.31901 .387369 -.460286 .154948 -.145834 .369141 -.145834 .692708 0 .692708 .792969 v 3.527342 h .195963 q .350912 0 .560547 .0957 .214193 .0957 .214193 .41927 0 .264323 -.173177 .38737 -.173177 .118489 -.519532 .118489 h -.27799 v .84766 q 0 .350912 -.154948 .524089 -.154948 .16862 -.414713 .16862 -.255209 0 -.414714 -.173178 -.154948 -.177734 -.154948 -.519531 z m -1.959634 -1.868489 h 1.959634 v -2.647785 z"/></g><g><path d="m 6.5056919 9.8507379 -1.0800778 -4.005858 -1.0937496 4.005858 q -.1276041 .4557291 -.2050781 .6562501 -.072917 .195963 -.2597655 .355468 -.1868489 .154948 -.4967446 .154948 -.250651 0 -.4147134 -.0957 -.1595052 -.091149 -.2597655 -.259768 -.1002604 -.173177 -.1640625 -.405599 -.0638021 -.236979 -.1139322 -.4375001 l -1.1119788 -4.4980453 q -.1002604 -.391927 -.1002604 -.597005 0 -.2597656 .1822916 -.4374999 .1822916 -.1777343 .4511717 -.1777343 .3691405 0 .4967446 .2369791 .1276042 .2369791 .2233073 .6881508 l .8749997 3.9010403 .9798173 -3.6503894 q .109375 -.4192707 .1959635 -.6380206 .0865885 -.2187499 .282552 -.3782551 .1959635 -.1595051 .5332029 -.1595051 .3417968 0 .5286457 .1686197 .1914062 .1640625 .2643228 .3600259 .072917 .1959635 .1959635 .6471352 l .9889319 3.6503894 .8749997 -3.9010403 q .063802 -.3053385 .1184896 -.4785155 .059245 -.173177 .1959635 -.3098957 .141276 -.1367187 .4055988 -.1367187 .2643228 0 .4466144 .1777343 .1868489 .173177 .1868489 .4374999 0 .1868488 -.1002604 .597005 l -1.1119788 4.4980453 q -.1139322 .4557291 -.1914061 .6699221 -.072917 .209635 -.2552083 .36914 -.1777343 .159505 -.5058592 .159505 -.3098957 0 -.4967446 -.154948 -.1868489 -.154948 -.2597656 -.346354 -.0729166 -.195963 -.205078 -.6653641 z"/><path d="m 16.631991 8.187327 v 1.2805986 q 0 .2552082 -.05013 .4101561 -.05013 .1503903 -.186849 .2734373 -.132162 .123047 -.341797 .236979 -.606119 .328125 -1.166666 .478516 -.560547 .15039 -1.221354 .15039 -.770182 0 -1.403645 -.236979 -.633464 -.236979 -1.080078 -.688151 -.446614 -.4511714 -.688151 -1.0937493 -.236979 -.6425779 -.236979 -1.4355464 0 -.7792966 .232422 -1.4264318 .232422 -.6471352 .683593 -1.0983069 .451172 -.4511718 1.098307 -.6881508 .647136 -.2415364 1.467448 -.2415364 .674479 0 1.19401 .1822916 .519531 .1777343 .843098 .4511717 .323568 .2734374 .48763 .5787759 .164063 .3053384 .164063 .5423175 0 .2552082 -.191406 .4374998 -.186849 .1777343 -.451172 .1777343 -.145833 0 -.282552 -.068359 -.132161 -.0683597 -.223307 -.1914065 -.250651 -.3919269 -.423828 -.5924477 -.173177 -.2005208 -.469401 -.3372395 -.291667 -.1367187 -.747396 -.1367187 -.469401 0 -.838541 .1640625 -.369141 .1595051 -.633463 .4694008 -.259766 .3053385 -.401042 .7519529 -.136719 .4466144 -.136719 .988932 0 1.1757808 .537761 1.8092441 .542317 .6334634 1.508463 .6334634 .469401 0 .879557 -.1230469 .414713 -.1230468 .838541 -.3509113 v -1.084635 h -1.048177 q -.378255 0 -.574218 -.1139323 -.191406 -.1139323 -.191406 -.3873697 0 -.2233072 .159505 -.3691405 .164062 -.1458332 .442057 -.1458332 h 1.535807 q .282552 0 .478515 .05013 .195964 .05013 .314453 .2233073 .123047 .173177 .123047 .519531 z"/><path d="m 22.998525 8.8982643 q 0 .6061196 -.314453 1.0891923 -.309896 .4830724 -.911458 .7565104 -.601563 .273437 -1.426432 .273437 -.988932 0 -1.63151 -.373698 -.455729 -.26888 -.742838 -.7154941 -.282552 -.4511718 -.282552 -.8749997 0 -.2460937 .168619 -.4192707 .173177 -.1777343 .4375 -.1777343 .214193 0 .360026 .1367187 .150391 .1367187 .255208 .4055988 .127604 .3190103 .273438 .5332029 .15039 .2141927 .41927 .3554687 .268881 .1367187 .70638 .1367187 .601563 0 .975261 -.2779947 .378255 -.282552 .378255 -.7018227 0 -.3326822 -.205078 -.5377603 -.200521 -.2096353 -.524089 -.3190103 -.31901 -.1093749 -.85677 -.2324218 -.720052 -.1686197 -1.207682 -.3919269 -.483073 -.2278645 -.770182 -.6152342 -.282552 -.3919269 -.282552 -.9707028 0 -.5514321 .300781 -.9798173 .300781 -.4283853 .870442 -.6562498 .569662 -.2324218 1.339844 -.2324218 .615234 0 1.061848 .1549478 .451172 .1503906 .747396 .4055989 .296224 .2506509 .432942 .5286456 .136719 .2779947 .136719 .5423175 0 .2415364 -.173177 .4374999 -.16862 .1914062 -.423828 .1914062 -.232422 0 -.355469 -.1139323 -.118489 -.1184895 -.259765 -.3828123 -.182292 -.3782551 -.4375 -.5878905 -.255208 -.2141926 -.820312 -.2141926 -.524089 0 -.847656 .2324218 -.31901 .2278645 -.31901 .5514321 0 .2005208 .109374 .346354 .109375 .1458333 .300782 .250651 .191406 .1048177 .387369 .1640624 .195964 .059245 .647135 .1731771 .565104 .1321614 1.020833 .2916665 .460287 .1595052 .779297 .3873697 .323568 .2278645 .501302 .5787758 .182292 .3463541 .182292 .8522133 z"/></g></svg>