<svg height="24" width="24" xmlns="http://www.w3.org/2000/svg"><path d="m2.5 7.5h19v14h-19z" fill="#e6e6e6" stroke="#6e97c4"/><path d="m15.07177 9.416268v9.014354" fill="none" opacity=".96" stroke="#f00" stroke-width="1.5"/><g stroke="#6e97c4"><path d="m2.5 2.5h19v5h-19z" fill="#bad9ec"/><path d="m5 5h4" fill="none" stroke-width="2"/><path d="m11 5h7.999999" fill="none" stroke-width="2"/><path d="m5 9.5h4" fill="none"/><path d="m11 9.5h7.999999" fill="none" opacity=".96"/><path d="m5 12.5h4" fill="none"/><path d="m11 12.5h7.999999" fill="none" opacity=".96"/><path d="m5 15.5h4" fill="none"/><path d="m11 15.5h7.999999" fill="none" opacity=".96"/><path d="m5 18.5h4" fill="none"/><path d="m11 18.5h7.999999" fill="none" opacity=".96"/></g><g fill="#0d2e44" transform="matrix(.75694868 0 0 .75694868 2.927647 8.178479)"><path d="m10.548534 9.0245246-1.941339 7.6160244h-1.8346725l-1.0346699-4.000013q-.032-.117334-.085334-.352001-.042667-.234667-.106667-.512002-.053333-.277334-.106667-.522668-.042667-.245334-.053333-.394668-.010667.149334-.064.394668-.042667.245334-.096.522668-.053333.266668-.106667.512002-.053333.234667-.085334.362668l-1.0240035 3.989346h-1.8346724l-1.94133948-7.6160244h1.58933838l.9706697 4.1600134q.064.245334.1386671.618668.074667.373335.1386671.746669.064.373335.096.629336.032-.266668.096-.629336.064-.373334.1280004-.714668.074667-.352002.1280004-.544002l1.1093375-4.2666804h1.5253381l1.1093369 4.2666804q.053333.192.1173337.544002.074667.341334.1386671.714668.064.373335.096.629336.032-.266668.096-.629336.064-.373334.1386671-.736002.085334-.373334.1386671-.629335l.9706703-4.1600134z"/><path d="m17.631234 16.640549h-1.834673l-1.994673-3.210677-.682668.490668v2.720009h-1.610672v-7.6160244h1.610672v3.4880114q.16-.224001.320001-.448002.16-.224.320001-.448001l2.058673-2.5920084h1.792006l-2.656009 3.3706774z"/><path d="m21.524575 16.640549h-1.610672v-6.27202h-2.06934v-1.3440044h5.749352v1.3440044h-2.06934z"/></g></svg>