<svg height="24mm" viewBox="0 0 24 24" width="24mm" xmlns="http://www.w3.org/2000/svg"><g fill="#404040" stroke-width=".264583" transform="translate(0 -273)"><path d="m .89228395 287.16586 2.48597725 -3.63044 -2.0918589 -3.22874 q -.29558876 -.46991 -.44717274 -.80339 -.14400478 -.34107 -.14400478 -.65182 0 -.31832 .28043036 -.56844 .28800956 -.25769 .69728636 -.25769 .4699103 0 .7276031 .28043 .2652719 .27285 .7276031 1.02319 l 1.6674238 2.6982 1.7811117 -2.6982 q .2197968 -.34106 .3713808 -.58359 .1591632 -.24254 .3031679 -.4017 .1440048 -.15916 .3183264 -.23496 .1819008 -.0834 .416856 -.0834 .4244351 0 .6897071 .25769 .2728511 .25012 .2728511 .59876 0 .50781 -.5835983 1.37942 l -2.1903885 3.27421 2.3571309 3.63044 q .3183263 .47749 .4623311 .79581 .1440048 .31075 .1440048 .59118 0 .26527 -.1288464 .48507 -.1288464 .21979 -.3638015 .34864 -.2349552 .12885 -.530544 .12885 -.3183263 0 -.5381231 -.13643 -.2197968 -.12884 -.3562224 -.3259 -.1364255 -.19706 -.5078063 -.7655 l -1.9554333 -3.07716 -2.0767006 3.16811 q -.2425343 .37896 -.3486431 .53054 -.09853 .15159 -.2425344 .29559 -.1440048 .14401 -.341064 .22738 -.1970591 .0834 -.4623311 .0834 -.40927675 0 -.68212791 -.25012 -.26527197 -.25011 -.26527197 -.7276 0 -.56086 .55328153 -1.37183 z"/><path d="m 11.935177 289.53057 q -.500227 0 -.864029 -.30317 -.363801 -.31075 -.363801 -.86403 0 -.47749 .356222 -.8034 .356222 -.3259 .841291 -.3259 .363802 0 .65939 .19706 .295589 .19706 .462332 .5836 .166742 .37896 .166742 .93982 0 .75034 -.318326 1.40215 -.318327 .65939 -.780658 1.03835 -.454752 .38654 -.826133 .38654 -.234955 0 -.386539 -.15916 -.144004 -.15159 -.144004 -.35623 0 -.31074 .310747 -.50022 .886766 -.49265 .886766 -1.23541 z"/><path d="m 18.013695 288.14357 v -3.52432 l -2.713353 -4.20646 q -.356223 -.56844 -.507807 -.88677 -.144005 -.31832 -.144005 -.55328 0 -.38654 .295589 -.66697 .303168 -.28043 .742762 -.28043 .462331 0 .697286 .26527 .242534 .2577 .720024 1.03835 l 2.0767 3.37275 2.099439 -3.37275 q .18948 -.31074 .318326 -.52296 .128846 -.21222 .28043 -.39412 .159164 -.18948 .348643 -.28801 .18948 -.0985 .462332 -.0985 .424435 0 .704865 .28043 .28801 .27285 .28801 .63666 0 .29558 -.144005 .59117 -.144005 .29559 -.492648 .81856 l -2.781566 4.26709 v 3.52432 q 0 .68971 -.318326 1.03077 -.318327 .34107 -.810975 .34107 -.500227 0 -.810974 -.33349 -.310747 -.34106 -.310747 -1.03835 z"/></g></svg>