<svg height="24mm" viewBox="0 0 24 24" width="24mm" xmlns="http://www.w3.org/2000/svg"><g transform="translate(0 -273)"><g fill="#404040" stroke-width=".264583"><path d="m 3.9281069 288.14357 v -3.52432 l -2.7133533 -4.20646 q -.35622234 -.56844 -.50780632 -.88677 -.14400478 -.31832 -.14400478 -.55328 0 -.38654 .29558876 -.66697 .30316794 -.28043 .74276154 -.28043 .4623311 0 .6972863 .26527 .2425344 .2577 .7200239 1.03835 l 2.0767005 3.37275 2.0994382 -3.37275 q .1894799 -.31074 .3183263 -.52296 .1288464 -.21222 .2804304 -.39412 .1591632 -.18948 .3486431 -.28801 .18948 -.0985 .4623312 -.0985 .4244351 0 .7048655 .28043 .2880096 .27285 .2880096 .63666 0 .29558 -.1440048 .59117 -.1440048 .29559 -.492648 .81856 l -2.781566 4.26709 v 3.52432 q 0 .68971 -.3183264 1.03077 -.3183263 .34107 -.8109743 .34107 -.5002271 0 -.8109743 -.33349 -.3107471 -.34106 -.3107471 -1.03835 z"/><path d="m 10.855495 289.53057 q -.500227 0 -.8640286 -.30317 -.3638015 -.31075 -.3638015 -.86403 0 -.47749 .3562223 -.8034 .3562228 -.3259 .8412908 -.3259 .363802 0 .659391 .19706 .295588 .19706 .462331 .5836 .166742 .37896 .166742 .93982 0 .75034 -.318326 1.40215 -.318327 .65939 -.780658 1.03835 -.454752 .38654 -.826132 .38654 -.2349556 0 -.3865396 -.15916 -.1440047 -.15159 -.1440047 -.35623 0 -.31074 .3107471 -.50022 .8867662 -.49265 .8867662 -1.23541 z"/><path d="m 14.046337 287.16586 2.485977 -3.63044 -2.091858 -3.22874 q -.295589 -.46991 -.447173 -.80339 -.144005 -.34107 -.144005 -.65182 0 -.31832 .28043 -.56844 .28801 -.25769 .697287 -.25769 .46991 0 .727603 .28043 .265272 .27285 .727603 1.02319 l 1.667424 2.6982 1.781111 -2.6982 q .219797 -.34106 .371381 -.58359 .159163 -.24254 .303168 -.4017 .144005 -.15916 .318327 -.23496 .1819 -.0834 .416855 -.0834 .424436 0 .689708 .25769 .272851 .25012 .272851 .59876 0 .50781 -.583599 1.37942 l -2.190388 3.27421 2.357131 3.63044 q .318326 .47749 .462331 .79581 .144005 .31075 .144005 .59118 0 .26527 -.128847 .48507 -.128846 .21979 -.363801 .34864 -.234955 .12885 -.530544 .12885 -.318326 0 -.538123 -.13643 -.219797 -.12884 -.356223 -.3259 -.136425 -.19706 -.507806 -.7655 l -1.955433 -3.07716 -2.076701 3.16811 q -.242534 .37896 -.348643 .53054 -.09853 .15159 -.242534 .29559 -.144005 .14401 -.341064 .22738 -.197059 .0834 -.462331 .0834 -.409277 0 -.682128 -.25012 -.265272 -.25011 -.265272 -.7276 0 -.56086 .553281 -1.37183 z"/></g><text x="12.85926" y="288.37778"/></g></svg>